<?xml version="1.0" encoding="utf-8"?>
<!-- Generator: Adobe Illustrator 21.1.0, SVG Export Plug-In . SVG Version: 6.00 Build 0)  -->
<svg version="1.1" id="Layer_1" xmlns="http://www.w3.org/2000/svg" xmlns:xlink="http://www.w3.org/1999/xlink" x="0px" y="0px"
	 viewBox="0 0 320 200" style="enable-background:new 0 0 320 200;" xml:space="preserve">
<style type="text/css">
	.st0{fill:#033E58;}
	.st1{clip-path:url(#SVGID_2_);}
	.st2{clip-path:url(#SVGID_4_);enable-background:new    ;}
	.st3{clip-path:url(#SVGID_6_);}
	.st4{clip-path:url(#SVGID_8_);}
	.st5{clip-path:url(#SVGID_10_);fill:#FFFFFF;}
</style>
<rect y="0" class="st0" width="320" height="200"/>
<g>
	<defs>
		<rect id="SVGID_1_" x="117.5" y="51.6" width="75.4" height="94"/>
	</defs>
	<clipPath id="SVGID_2_">
		<use xlink:href="#SVGID_1_"  style="overflow:visible;"/>
	</clipPath>
	<g class="st1">
		<defs>
			<rect id="SVGID_3_" x="-369.4" y="-189.6" width="1042.9" height="775.1"/>
		</defs>
		<clipPath id="SVGID_4_">
			<use xlink:href="#SVGID_3_"  style="overflow:visible;"/>
		</clipPath>
		<g class="st2">
			<g>
				<defs>
					<rect id="SVGID_5_" x="117.5" y="51.6" width="75.4" height="94"/>
				</defs>
				<clipPath id="SVGID_6_">
					<use xlink:href="#SVGID_5_"  style="overflow:visible;"/>
				</clipPath>
				<g class="st3">
					<defs>
						<path id="SVGID_7_" d="M128.2,51.6h35.7l29,29v54.4c0,5.9-4.8,10.7-10.7,10.7h-54c-5.9,0-10.7-4.8-10.7-10.7V62.2
							C117.5,56.4,122.3,51.6,128.2,51.6z M177.9,88.9c1.1-1.1,1.1-2.8,0-3.8l-6.4-6.4c-1.1-1.1-2.8-1.1-3.9,0l-5,5l10.3,10.2
							L177.9,88.9z M129.4,127h10.3l30.3-30.2l-10.3-10.2l-30.3,30.2V127z"/>
					</defs>
					<clipPath id="SVGID_8_">
						<use xlink:href="#SVGID_7_"  style="overflow:visible;"/>
					</clipPath>
					<g class="st4">
						<defs>
							<rect id="SVGID_9_" x="117.5" y="51.6" width="75.4" height="94"/>
						</defs>
						<clipPath id="SVGID_10_">
							<use xlink:href="#SVGID_9_"  style="overflow:visible;"/>
						</clipPath>
						<rect x="113" y="47.1" class="st5" width="84.2" height="102.9"/>
					</g>
				</g>
			</g>
		</g>
	</g>
</g>
</svg>
