<?xml version="1.0" encoding="utf-8"?>
<!-- Generator: Adobe Illustrator 21.1.0, SVG Export Plug-In . SVG Version: 6.00 Build 0)  -->
<svg version="1.1" id="Layer_1" xmlns="http://www.w3.org/2000/svg" xmlns:xlink="http://www.w3.org/1999/xlink" x="0px" y="0px"
	 viewBox="0 0 320 200" style="enable-background:new 0 0 320 200;" xml:space="preserve">
<style type="text/css">
	.st0{fill:#008080;}
	.st1{fill:#FFFFFF;}
</style>
<rect class="st0" width="320" height="200"/>
<g>
	<g>
		<g>
			<g>
				<defs>
					<rect id="SVGID_1_" x="-411.5" y="-328.3" width="1143.4" height="849.8"/>
				</defs>
				<clipPath id="SVGID_2_">
					<use xlink:href="#SVGID_1_"  style="overflow:visible;"/>
				</clipPath>
			</g>
		</g>
	</g>
</g>
<path class="st1" d="M183.3,114h-4.9l-1.7-1.7c6.1-7.1,9.8-16.3,9.8-26.3c0-22.3-18.1-40.4-40.4-40.4S105.7,63.7,105.7,86
	s18.1,40.4,40.4,40.4c10,0,19.2-3.7,26.3-9.8l1.7,1.7v4.9l31.1,31l9.3-9.3L183.3,114z M146,114c-15.5,0-28-12.5-28-28s12.5-28,28-28
	s28,12.5,28,28S161.5,114,146,114z"/>
</svg>
